{"title":"Titanic Extended Cut","uid":5359100,"size":1913235202,"categoryP":"video","categoryS":"movies","magnet":"?xt=urn:btih:3fb4ee70668b021765b00f8342c8984f8b6423c3&amp;dn=Titanic+Extended+Cut&amp;tr=udp%3A%2F%2Ftracker.openbittorrent.com%3A80&amp;tr=udp%3A%2F%2Fopen.demonii.com%3A1337&amp;tr=udp%3A%2F%2Ftracker.coppersurfer.tk%3A6969&amp;tr=udp%3A%2F%2Fexodus.desync.com%3A6969","seeders":0,"leechers":1,"uploader":"kn5150","files":1,"time":1266044413,"description":"General\nComplete name                    : C:UsersDesktopTitanic Extended Cut.avi\nFormat                           : AVI\nFormat/Info                      : Audio Video Interleave\nFile size                        : 1.78 GiB\nDuration                         : 3h 44mn\nOverall bit rate                 : 1 137 Kbps\nMovie name                       : ADM_TITANIC_1.Title1.DVDRip\nWriting application              : Lavf52.33.0\nWriting library                  : VirtualDub build 32661/release\nOriginal source form/Name        : ADM_TITANIC_1\n\nVideo\nID                               : 0\nFormat                           : MPEG-4 Visual\nFormat profile                   : Simple@L3\nFormat settings, BVOP            : No\nFormat settings, QPel            : No\nFormat settings, GMC             : No warppoints\nFormat settings, Matrix          : Default (H.263)\nCodec ID                         : DX50\nCodec ID/Hint                    : DivX 5\nDuration                         : 3h 44mn\nBit rate                         : 1 000 Kbps\nWidth                            : 848 pixels\nHeight                           : 476 pixels\nDisplay aspect ratio             : 16:9\nFrame rate                       : 23.976 fps\nResolution                       : 24 bits\nColorimetry                      : 4:2:0\nScan type                        : Progressive\nBits/(Pixel*Frame)               : 0.103\nStream size                      : 1.57 GiB (88%)\nWriting library                  : XviD 1.2.1 (UTC 2008-12-04)\n\nAudio\nID                               : 1\nFormat                           : MPEG Audio\nFormat version                   : Version 1\nFormat profile                   : Layer 3\nFormat settings, Mode            : Joint stereo / MS Stereo\nCodec ID                         : 55\nCodec ID/Hint                    : MP3\nDuration                         : 3h 44mn\nBit rate mode                    : Constant\nBit rate                         : 128 Kbps\nChannel(s)                       : 2 channels\nSampling rate                    : 48.0 KHz\nResolution                       : 16 bits\nStream size                      : 205 MiB (11%)\nAlignment                        : Split accross interleaves\nInterleave, duration             : 42 ms (1.00 video frame)\nInterleave, preload duration     : 500 ms\nWriting library                  : LAME3.98.2\n","torrent":{"xt":"urn:btih:3fb4ee70668b021765b00f8342c8984f8b6423c3","amp;dn":"Titanic+Extended+Cut","amp;tr":["udp%3A%2F%2Ftracker.openbittorrent.com%3A80","udp%3A%2F%2Fopen.demonii.com%3A1337","udp%3A%2F%2Ftracker.coppersurfer.tk%3A6969","udp%3A%2F%2Fexodus.desync.com%3A6969"],"infoHash":"3fb4ee70668b021765b00f8342c8984f8b6423c3","infoHashBuffer":{"type":"Buffer","data":[63,180,238,112,102,139,2,23,101,176,15,131,66,200,152,79,139,100,35,195]},"announce":[],"urlList":[]}}